<svg width="32" height="32" viewBox="0 0 32 32" fill="none" xmlns="http://www.w3.org/2000/svg">
<path d="M19.4796 3.29396L19.3772 3.20414C18.9852 2.90474 18.4234 2.93468 18.0654 3.29396L17.9759 3.39673C17.6776 3.79012 17.7074 4.35403 18.0654 4.71331L20.694 7.34907H11.3327L11.0218 7.35456C6.37934 7.51882 2.66602 11.3478 2.66602 16.0472C2.66602 18.3013 3.52029 20.355 4.92162 21.9002L5.01811 21.9929C5.19263 22.142 5.41885 22.232 5.66602 22.232C6.2183 22.232 6.66602 21.7827 6.66602 21.2284C6.66602 20.9975 6.58829 20.7847 6.45765 20.6151L6.19187 20.3075C5.23873 19.1503 4.66602 17.6659 4.66602 16.0472C4.66602 12.3519 7.65078 9.35634 11.3327 9.35634H20.5073L18.0654 11.8101L17.9759 11.9128C17.6776 12.3062 17.7074 12.8701 18.0654 13.2294C18.4559 13.6214 19.0891 13.6214 19.4796 13.2294L23.7222 8.97136L23.8117 8.86858C24.11 8.4752 24.0802 7.91129 23.7222 7.55201L19.4796 3.29396ZM26.9727 10.0948C26.7992 9.94966 26.5761 9.86236 26.3327 9.86236C25.7804 9.86236 25.3327 10.3117 25.3327 10.866C25.3327 11.1149 25.423 11.3427 25.5715 11.5163C26.6649 12.7081 27.3327 14.2994 27.3327 16.0472C27.3327 19.7425 24.3479 22.7381 20.666 22.7381H11.41L13.9505 20.1899L14.0481 20.0764C14.3112 19.7196 14.3085 19.2274 14.04 18.8734L13.9505 18.7706L13.8374 18.6727C13.4819 18.4086 12.9915 18.4113 12.6387 18.6808L12.5363 18.7706L8.29365 23.0286L8.1961 23.1422C7.93299 23.499 7.93567 23.9912 8.20416 24.3452L8.29365 24.448L12.5363 28.706L12.6484 28.8032C13.0399 29.0947 13.5955 29.0624 13.9505 28.706C14.3085 28.3468 14.3383 27.7829 14.04 27.3895L13.9505 27.2867L11.418 24.7454H20.666L20.9769 24.7399C25.6194 24.5756 29.3327 20.7466 29.3327 16.0472C29.3327 13.7893 28.4755 11.7323 27.0698 10.1862L26.9727 10.0948Z" fill="#555555"/>
</svg>
